<svg xmlns="http://www.w3.org/2000/svg" viewBox="0 0 237.35 97.39"><defs><style>.cls-1{fill:#dcdcdc;}.cls-2{fill:#fff;}.cls-3{fill:#33bc72;}</style></defs><title>logo_brand</title><g id="Livello_2" data-name="Livello 2"><g id="Livello_38" data-name="Livello 38"><path class="cls-1" d="M42.08,76.23H22.77a6.1,6.1,0,0,1-6-5.14c-.94-5.54-3.71-9.38-6.93-13.82A59.64,59.64,0,0,1,2.55,45.06l0-.1A32,32,0,0,1,0,32.43,32.43,32.43,0,1,1,62.31,45,58.94,58.94,0,0,1,55,57.26c-3.21,4.45-6,8.29-6.93,13.83A6.09,6.09,0,0,1,42.08,76.23ZM4.46,44.45a58.9,58.9,0,0,0,7,11.64c3.22,4.46,6.26,8.67,7.28,14.67a4.11,4.11,0,0,0,4,3.47H42.08a4.1,4.1,0,0,0,4-3.47c1-6,4.06-10.21,7.28-14.67a57.59,57.59,0,0,0,7.09-11.8l0-.1A30.43,30.43,0,1,0,2,32.43,30.13,30.13,0,0,0,4.39,44.26Z"/><path class="cls-2" d="M28.51,76.16a.94.94,0,0,1-.94-.93c0-9.51-4.17-17.59-8.21-25.4-3.4-6.56-6.6-12.76-6.6-18.92a.93.93,0,0,1,1.86,0c0,5.71,3.1,11.71,6.39,18.06,3.95,7.64,8.43,16.29,8.43,26.26A.93.93,0,0,1,28.51,76.16Z"/><path class="cls-2" d="M36.24,76.16a.93.93,0,0,0,.93-.93c0-9.51,4.17-17.59,8.21-25.4,3.4-6.56,6.6-12.76,6.6-18.92a.93.93,0,0,0-1.86,0c0,5.71-3.1,11.71-6.39,18.06-3.95,7.64-8.43,16.29-8.43,26.26A.94.94,0,0,0,36.24,76.16Z"/><path class="cls-3" d="M41.71,37.83l1.4-2.95a.38.38,0,0,1,.31-.22.37.37,0,0,1,.35.13l2.09,2.51a4.12,4.12,0,0,0,2.65,1.43,28.43,28.43,0,0,0,1.28-4.61,1.79,1.79,0,0,0-.39.67.38.38,0,0,1-.3.26.38.38,0,0,1-.38-.14l-2.09-2.5a4.11,4.11,0,0,0-6.88.87l-1.41,2.95a.37.37,0,0,1-.33.22.34.34,0,0,1-.35-.18L35.9,33.52a4.12,4.12,0,0,0-6.94,0l-1.77,2.75a.33.33,0,0,1-.35.18.39.39,0,0,1-.33-.22l-1.4-2.95a4.12,4.12,0,0,0-6.88-.87l-2.1,2.5a.36.36,0,0,1-.37.14.38.38,0,0,1-.3-.26,1.75,1.75,0,0,0-.53-.77,28.88,28.88,0,0,0,1.31,4.73A4.07,4.07,0,0,0,19,37.3l2.1-2.51a.36.36,0,0,1,.35-.13.37.37,0,0,1,.3.22l1.4,2.95a4.13,4.13,0,0,0,3.47,2.34h.26a4.1,4.1,0,0,0,3.46-1.9l1.77-2.75a.35.35,0,0,1,.66,0l1.76,2.75a4.12,4.12,0,0,0,7.19-.45Z"/><path class="cls-1" d="M32.75,97.39a3.94,3.94,0,0,1-2.23-.69L19.15,88.9h27.2L35,96.7h0A3.88,3.88,0,0,1,32.75,97.39ZM25.6,90.9l6,4.15a2,2,0,0,0,2.19,0h0l6-4.15Z"/><path class="cls-1" d="M44.83,90.89H20a2.61,2.61,0,0,1-2.6-2.6V76.83a2.6,2.6,0,0,1,2.6-2.6H44.83a2.6,2.6,0,0,1,2.6,2.6V88.29A2.61,2.61,0,0,1,44.83,90.89ZM20,76.23a.61.61,0,0,0-.6.6V88.29a.61.61,0,0,0,.6.6H44.83a.6.6,0,0,0,.6-.6V76.83a.6.6,0,0,0-.6-.6Z"/><path class="cls-3" d="M91,30.12a7.15,7.15,0,0,0-6-3.13c-3.83,0-5,2.41-5,4.28a3.1,3.1,0,0,0,1.15,2.46c.88.82,2.08,1.26,4.38,2.08,2.85,1,5.53,2,7.4,3.67a9.94,9.94,0,0,1,3.12,7.67c0,7.12-5.15,12-12.71,12a15,15,0,0,1-12.59-6.9l4.65-4.44a8.57,8.57,0,0,0,7.67,4.88c3.23,0,5.64-2,5.64-5a4.26,4.26,0,0,0-1.43-3.29c-1.36-1.26-3.55-2-5.64-2.68a17.66,17.66,0,0,1-6.07-3.17,8.51,8.51,0,0,1-2.91-6.8C72.67,26.34,76.29,21,84.39,21a14.05,14.05,0,0,1,10.35,4.27Z"/><path class="cls-3" d="M106.68,21.79h5.15L121.52,45l10.14-23.22h5.14l6.14,36.53h-7.23l-3.29-22.51-9.8,22.51h-2.41l-9.37-22.51-3.72,22.51H99.89Z"/><path class="cls-3" d="M171,50.65H156.3l-3.23,7.67h-7.72l15.72-36.53h5.58l15.28,36.53h-7.67ZM169,44.85l-5.2-13.15-5.2,13.15Z"/><path class="cls-3" d="M196.77,21.79c5,0,7.62,1.32,9.31,2.74a10.36,10.36,0,0,1,3.62,8.22,10,10,0,0,1-4.27,8.59,10.12,10.12,0,0,1-4,1.59l11.39,15.39H204L194.2,43.64h-.88V58.32H186.2V21.79ZM193.32,38.6h2c1.37,0,7-.16,7-5.53s-5.59-5.47-6.9-5.47h-2.14Z"/><path class="cls-3" d="M229.14,27.93V58.32H222V27.93H213.8V21.79h23.55v6.14Z"/><path class="cls-2" d="M85.81,71l-1.16.89a6.49,6.49,0,0,0-2.32-1.9,6.75,6.75,0,0,0-3-.64,6.58,6.58,0,0,0-3.27.84,6.15,6.15,0,0,0-2.33,2.28,6.29,6.29,0,0,0-.83,3.21,6.07,6.07,0,0,0,1.85,4.51,6.44,6.44,0,0,0,4.67,1.8,6.58,6.58,0,0,0,5.19-2.43l1.16.89a7.5,7.5,0,0,1-2.75,2.17,8.67,8.67,0,0,1-3.69.76,7.66,7.66,0,0,1-6.11-2.57,7.77,7.77,0,0,1-1.87-5.26,7.33,7.33,0,0,1,2.27-5.45,7.84,7.84,0,0,1,5.69-2.21,8.27,8.27,0,0,1,3.73.82A7.23,7.23,0,0,1,85.81,71Z"/><path class="cls-2" d="M105.44,67.84a7.64,7.64,0,0,1,5.61,2.24,7.42,7.42,0,0,1,2.26,5.5A7.81,7.81,0,0,1,100,81.09a7.38,7.38,0,0,1-2.26-5.44,7.83,7.83,0,0,1,1-3.94,7.42,7.42,0,0,1,2.8-2.84A7.52,7.52,0,0,1,105.44,67.84Zm.07,1.44a6.28,6.28,0,0,0-5.39,3.15,6.36,6.36,0,0,0-.83,3.22,6.21,6.21,0,0,0,6.22,6.25,6.4,6.4,0,0,0,3.18-.83A6.09,6.09,0,0,0,111,78.79a6.44,6.44,0,0,0,.82-3.21A6.33,6.33,0,0,0,111,72.4a6.41,6.41,0,0,0-5.46-3.12Z"/><path class="cls-2" d="M125.25,83l2.11-14.75h.24l6,12.11,5.94-12.11h.23L141.9,83h-1.45L139,72.41,133.78,83h-.38l-5.28-10.63L126.67,83Z"/><path class="cls-2" d="M154.44,68.21h2.94a17.55,17.55,0,0,1,3.41.22,3.81,3.81,0,0,1,2.06,1.28,3.67,3.67,0,0,1,.8,2.43,3.74,3.74,0,0,1-.78,2.44,3.87,3.87,0,0,1-2.16,1.28,19,19,0,0,1-3.75.24h-1.05V83h-1.47Zm1.47,1.45v5l2.5,0a6.68,6.68,0,0,0,2.22-.27,2.31,2.31,0,0,0,1.1-.9,2.53,2.53,0,0,0,0-2.73,2.19,2.19,0,0,0-1.06-.87,6.23,6.23,0,0,0-2.15-.26Z"/><path class="cls-2" d="M182.28,68.21,189.16,83h-1.59l-2.32-4.85h-6.36L176.59,83H175l7-14.75Zm-.19,3.14-2.52,5.34h5Z"/><path class="cls-2" d="M201.11,83V68.21h.32l9.82,11.31V68.21h1.45V83h-.33l-9.74-11.17V83Z"/><path class="cls-2" d="M224.78,68.21h1.7l3.77,6.09L234,68.21h1.7L231,75.91v7h-1.46v-7Z"/></g></g></svg>